<?xml version="1.0" standalone="no"?>
<!DOCTYPE svg PUBLIC "-//W3C//DTD SVG 20010904//EN"
 "http://www.w3.org/TR/2001/REC-SVG-20010904/DTD/svg10.dtd">
<svg version="1.0" xmlns="http://www.w3.org/2000/svg"
 width="301.000000pt" height="334.000000pt" viewBox="0 0 301.000000 334.000000"
 preserveAspectRatio="xMidYMid meet">

<g transform="translate(0.000000,334.000000) scale(0.100000,-0.100000)"
fill="#000000" stroke="none">
<path d="M1368 2247 c-11 -12 -29 -45 -39 -72 -18 -47 -18 -51 -2 -62 29 -22
42 -15 53 30 6 23 15 58 21 77 5 19 9 38 9 43 0 15 -22 6 -42 -16z"/>
<path d="M1735 2132 c-21 -23 -64 -129 -57 -137 13 -12 51 -4 56 13 12 44 27
134 23 139 -3 3 -13 -4 -22 -15z"/>
<path d="M1137 2070 c-21 -17 -27 -30 -27 -59 0 -46 15 -61 93 -95 56 -25 57
-27 57 -66 0 -22 -7 -57 -15 -77 -12 -29 -13 -38 -3 -45 22 -13 45 -9 53 10
19 46 44 197 34 208 -5 6 -36 22 -69 34 -67 25 -75 32 -87 78 l-8 34 -28 -22z"/>
<path d="M1482 1888 c-7 -7 -12 -26 -12 -42 0 -28 3 -31 33 -32 17 0 53 -10
80 -22 45 -20 47 -23 47 -62 0 -23 -7 -55 -16 -72 -18 -34 -7 -50 31 -46 16 3
23 19 39 101 24 117 27 111 -97 156 -103 36 -90 34 -105 19z"/>
<path d="M1840 1746 c-5 -15 -10 -38 -10 -52 0 -21 3 -23 19 -14 11 5 35 10
55 10 23 0 45 9 67 28 l33 27 -45 6 c-24 4 -59 10 -76 14 -29 7 -34 5 -43 -19z"/>
<path d="M1042 1677 c-48 -51 -14 -113 75 -142 75 -24 79 -31 59 -121 -22
-103 -21 -156 4 -179 33 -30 85 -25 121 11 l30 30 -37 0 c-26 0 -42 7 -55 23
-24 29 -24 45 1 160 24 109 23 113 -57 136 -60 18 -103 53 -103 85 0 26 -11
25 -38 -3z"/>
<path d="M1400 1501 c-21 -39 -13 -58 28 -64 20 -3 58 -14 85 -26 45 -19 47
-22 47 -60 0 -22 -7 -70 -16 -108 -19 -81 -12 -127 21 -149 32 -21 89 -11 110
19 21 30 19 37 -12 37 -67 1 -77 35 -50 178 15 80 18 115 10 123 -12 12 -176
69 -198 69 -8 0 -19 -9 -25 -19z"/>
<path d="M1766 1378 c-15 -59 -11 -63 67 -66 67 -3 75 -1 97 23 13 13 22 26
19 28 -6 5 -152 37 -165 37 -7 0 -14 -10 -18 -22z"/>
</g>
</svg>
